<?xml version="1.0" encoding="UTF-8"?>
<svg xmlns="http://www.w3.org/2000/svg" xmlns:xlink="http://www.w3.org/1999/xlink" width="25pt" height="25pt" viewBox="0 0 25 25" version="1.1">
<g id="surface1">
<path style=" stroke:none;fill-rule:evenodd;fill:rgb(84.705882%,85.098039%,84.705882%);fill-opacity:1;" d="M 7.664062 12.898438 C 7.644531 12.898438 7.886719 13.410156 7.894531 13.410156 C 8.417969 14.347656 9.433594 14.929688 11.144531 15.09375 C 10.898438 15.273438 10.605469 15.621094 10.566406 16.019531 C 10.257812 16.214844 9.640625 16.28125 9.160156 16.128906 C 8.488281 15.921875 8.230469 14.613281 7.222656 14.800781 C 7.007812 14.839844 7.050781 14.980469 7.238281 15.101562 C 7.546875 15.296875 7.832031 15.542969 8.058594 16.0625 C 8.226562 16.460938 8.585938 17.171875 9.726562 17.171875 C 10.175781 17.171875 10.492188 17.121094 10.492188 17.121094 C 10.492188 17.121094 10.503906 18.140625 10.503906 18.535156 C 10.503906 18.992188 9.875 19.121094 9.875 19.339844 C 9.875 19.429688 10.082031 19.4375 10.25 19.4375 C 10.578125 19.4375 11.265625 19.164062 11.265625 18.691406 C 11.265625 18.3125 11.273438 17.042969 11.273438 16.824219 C 11.273438 16.335938 11.535156 16.183594 11.535156 16.183594 C 11.535156 16.183594 11.570312 18.773438 11.472656 19.121094 C 11.359375 19.53125 11.15625 19.472656 11.15625 19.652344 C 11.15625 19.925781 11.984375 19.71875 12.257812 19.125 C 12.46875 18.664062 12.375 16.121094 12.375 16.121094 L 12.601562 16.117188 C 12.601562 16.117188 12.613281 17.28125 12.605469 17.8125 C 12.597656 18.363281 12.5625 19.058594 12.894531 19.386719 C 13.113281 19.601562 13.820312 19.980469 13.820312 19.636719 C 13.820312 19.433594 13.433594 19.269531 13.433594 18.726562 L 13.433594 16.21875 C 13.742188 16.21875 13.695312 17.042969 13.695312 17.042969 L 13.71875 18.574219 C 13.71875 18.574219 13.648438 19.132812 14.332031 19.363281 C 14.574219 19.449219 15.089844 19.46875 15.113281 19.332031 C 15.136719 19.191406 14.492188 18.984375 14.484375 18.554688 C 14.484375 18.289062 14.5 18.136719 14.5 16.992188 C 14.5 15.847656 14.339844 15.421875 13.796875 15.085938 C 15.480469 14.917969 16.519531 14.507812 17.027344 13.414062 C 17.066406 13.414062 17.234375 12.902344 17.210938 12.902344 C 17.324219 12.488281 17.386719 12 17.398438 11.417969 C 17.398438 9.847656 16.632812 9.292969 16.484375 9.03125 C 16.703125 7.84375 16.449219 7.300781 16.332031 7.117188 C 15.898438 6.964844 14.824219 7.503906 14.234375 7.886719 C 13.28125 7.613281 11.257812 7.636719 10.496094 7.957031 C 9.097656 6.972656 8.359375 7.125 8.359375 7.125 C 8.359375 7.125 7.878906 7.964844 8.230469 9.199219 C 7.769531 9.777344 7.425781 10.183594 7.425781 11.265625 C 7.425781 11.875 7.5 12.421875 7.664062 12.898438 Z M 12.3125 23.878906 C 6.132812 23.878906 1.121094 18.867188 1.121094 12.6875 C 1.121094 6.503906 6.132812 1.492188 12.3125 1.492188 C 18.496094 1.492188 23.507812 6.503906 23.507812 12.6875 C 23.507812 18.867188 18.496094 23.878906 12.3125 23.878906 Z M 12.3125 23.878906 "/>
</g>
</svg>
