<?xml version="1.0" encoding="UTF-8"?>
<svg xmlns="http://www.w3.org/2000/svg" xmlns:xlink="http://www.w3.org/1999/xlink" width="32pt" height="23pt" viewBox="0 0 32 23" version="1.1">
<g id="surface1">
<path style=" stroke:none;fill-rule:nonzero;fill:rgb(50.588235%,50.588235%,50.588235%);fill-opacity:1;" d="M 29.367188 4.09375 L 29.367188 6.339844 L 23.128906 11.164062 L 23.128906 3.125 C 23.722656 2.671875 24.542969 2.046875 25.183594 1.566406 C 26.121094 0.851562 27.441406 0.878906 28.3125 1.675781 C 28.960938 2.273438 29.367188 3.132812 29.367188 4.09375 Z M 29.367188 4.09375 "/>
<path style=" stroke:none;fill-rule:nonzero;fill:rgb(43.137255%,43.137255%,43.137255%);fill-opacity:1;" d="M 29.367188 6.339844 L 29.367188 20.03125 C 29.367188 21.078125 28.53125 21.929688 27.496094 21.929688 L 23.128906 21.929688 L 23.128906 11.164062 Z M 29.367188 6.339844 "/>
<path style=" stroke:none;fill-rule:nonzero;fill:rgb(56.862745%,56.862745%,56.862745%);fill-opacity:1;" d="M 23.128906 3.125 L 23.128906 11.164062 L 15.644531 16.953125 L 8.160156 11.164062 L 8.160156 3.125 L 15.644531 8.871094 Z M 23.128906 3.125 "/>
<path style=" stroke:none;fill-rule:nonzero;fill:rgb(45.098039%,45.098039%,45.098039%);fill-opacity:1;" d="M 8.160156 3.125 L 8.160156 11.164062 L 1.921875 6.339844 L 1.921875 4.09375 C 1.921875 3.132812 2.332031 2.273438 2.980469 1.675781 C 3.847656 0.878906 5.167969 0.851562 6.109375 1.566406 C 6.746094 2.046875 7.570312 2.671875 8.160156 3.125 Z M 8.160156 3.125 "/>
<path style=" stroke:none;fill-rule:nonzero;fill:rgb(61.176471%,61.176471%,61.176471%);fill-opacity:1;" d="M 8.160156 11.164062 L 8.160156 21.925781 L 3.792969 21.925781 C 2.761719 21.925781 1.921875 21.078125 1.921875 20.03125 L 1.921875 6.339844 Z M 8.160156 11.164062 "/>
</g>
</svg>
